<svg width="423" height="136" viewBox="0 0 423 136" fill="none" xmlns="http://www.w3.org/2000/svg">
<rect width="422.676" height="135.493" fill="white"/>
<path d="M89.2588 67.7487C89.2602 72.8093 87.4761 77.7082 84.2206 81.5827C80.9652 85.4572 76.4471 88.059 71.462 88.9299C66.4769 89.8007 61.3443 88.8849 56.9681 86.3436C52.5918 83.8022 49.2525 79.7984 47.538 75.037L35.2344 84.8788C39.06 92.1508 45.2118 97.9313 52.7076 101.297C60.2034 104.663 68.6109 105.421 76.5876 103.449C84.5643 101.477 91.6502 96.8888 96.714 90.4178C101.778 83.9467 104.527 75.9655 104.524 67.7487" fill="#00AC47"/>
<path d="M89.2612 67.7487C89.2583 71.171 88.4377 74.5432 86.8677 77.5842C85.2977 80.6252 83.0238 83.247 80.2354 85.2313L92.4002 94.9621C96.2143 91.528 99.2645 87.3311 101.353 82.6432C103.442 77.9553 104.523 72.8809 104.526 67.7487" fill="#4285F4"/>
<path d="M46.2383 67.7483C46.2438 65.2618 46.6834 62.7953 47.5372 60.46L35.2335 50.6182C32.4362 55.8947 30.9736 61.7761 30.9736 67.7483C30.9736 73.7205 32.4362 79.6019 35.2335 84.8785L47.5372 75.0367C46.6834 72.7013 46.2438 70.2349 46.2383 67.7483Z" fill="#FFBA00"/>
<path d="M67.7489 46.2383C72.3004 46.2397 76.7324 47.6944 80.3995 50.3904L91.6679 39.8714C87.4848 36.2648 82.5413 33.6496 77.2062 32.2207C71.8711 30.7919 66.2822 30.5864 60.8565 31.6196C55.4309 32.6528 50.3087 34.898 45.8721 38.1877C41.4355 41.4773 37.7991 45.7264 35.2344 50.618L47.538 60.4597C49.0385 56.3005 51.7833 52.7043 55.3994 50.1598C59.0155 47.6153 63.3274 46.2461 67.7489 46.2383Z" fill="#EA4435"/>
<path d="M104.524 64.9729V67.7483L98.2796 77.4624H69.1372V62.1974H101.749C102.485 62.1974 103.191 62.4898 103.711 63.0103C104.232 63.5308 104.524 64.2368 104.524 64.9729Z" fill="#4285F4"/>
<path d="M134.179 36.4896L134.179 99.0032" stroke="#0C030E" stroke-width="1.07782" stroke-linecap="round"/>
<path d="M181.582 57.1863C181.582 60.5051 180.598 63.1492 178.628 65.1184C176.416 67.4638 173.506 68.6364 169.9 68.6364C166.448 68.6364 163.527 67.4416 161.138 65.052C158.748 62.6624 157.553 59.7197 157.553 56.2238C157.553 52.7279 158.748 49.7851 161.138 47.3955C163.527 45.0059 166.448 43.8111 169.9 43.8111C171.648 43.8111 173.296 44.1209 174.845 44.7404C176.394 45.3599 177.666 46.2339 178.662 47.3623L176.471 49.5528C175.741 48.6678 174.79 47.9819 173.617 47.4951C172.466 46.9862 171.227 46.7317 169.9 46.7317C167.311 46.7317 165.121 47.6279 163.328 49.4201C161.558 51.2344 160.673 53.5023 160.673 56.2238C160.673 58.9453 161.558 61.2132 163.328 63.0275C165.121 64.8197 167.311 65.7158 169.9 65.7158C172.267 65.7158 174.236 65.052 175.807 63.7245C177.378 62.3969 178.285 60.5715 178.529 58.2483H169.9V55.3941H181.416C181.527 56.0136 181.582 56.611 181.582 57.1863ZM183.67 59.9741C183.67 57.4739 184.455 55.4051 186.026 53.7678C187.619 52.1305 189.622 51.3118 192.033 51.3118C194.445 51.3118 196.436 52.1305 198.007 53.7678C199.6 55.4051 200.397 57.4739 200.397 59.9741C200.397 62.4965 199.6 64.5653 198.007 66.1805C196.436 67.8178 194.445 68.6364 192.033 68.6364C189.622 68.6364 187.619 67.8178 186.026 66.1805C184.455 64.5431 183.67 62.4744 183.67 59.9741ZM186.723 59.9741C186.723 61.7221 187.232 63.1381 188.25 64.2223C189.268 65.3065 190.529 65.8486 192.033 65.8486C193.538 65.8486 194.799 65.3065 195.817 64.2223C196.835 63.1381 197.344 61.7221 197.344 59.9741C197.344 58.2483 196.835 56.8433 195.817 55.7591C194.777 54.6528 193.516 54.0997 192.033 54.0997C190.551 54.0997 189.29 54.6528 188.25 55.7591C187.232 56.8433 186.723 58.2483 186.723 59.9741ZM202.241 59.9741C202.241 57.4739 203.027 55.4051 204.598 53.7678C206.191 52.1305 208.193 51.3118 210.605 51.3118C213.017 51.3118 215.008 52.1305 216.579 53.7678C218.172 55.4051 218.968 57.4739 218.968 59.9741C218.968 62.4965 218.172 64.5653 216.579 66.1805C215.008 67.8178 213.017 68.6364 210.605 68.6364C208.193 68.6364 206.191 67.8178 204.598 66.1805C203.027 64.5431 202.241 62.4744 202.241 59.9741ZM205.295 59.9741C205.295 61.7221 205.804 63.1381 206.821 64.2223C207.839 65.3065 209.1 65.8486 210.605 65.8486C212.109 65.8486 213.371 65.3065 214.388 64.2223C215.406 63.1381 215.915 61.7221 215.915 59.9741C215.915 58.2483 215.406 56.8433 214.388 55.7591C213.348 54.6528 212.087 54.0997 210.605 54.0997C209.122 54.0997 207.861 54.6528 206.821 55.7591C205.804 56.8433 205.295 58.2483 205.295 59.9741ZM229.044 65.8486C230.548 65.8486 231.776 65.3065 232.728 64.2223C233.723 63.1381 234.221 61.7221 234.221 59.9741C234.221 58.2704 233.723 56.8654 232.728 55.7591C231.754 54.6528 230.526 54.0997 229.044 54.0997C227.583 54.0997 226.355 54.6528 225.36 55.7591C224.364 56.8654 223.866 58.2704 223.866 59.9741C223.866 61.6999 224.364 63.1049 225.36 64.1891C226.355 65.2954 227.583 65.8486 229.044 65.8486ZM228.944 75.8052C228.037 75.8052 227.185 75.6835 226.389 75.4402C225.592 75.2189 224.862 74.8981 224.198 74.4777C223.556 74.0573 223.003 73.5595 222.539 72.9842C222.074 72.4089 221.72 71.7673 221.477 71.0592L224.364 69.8644C224.696 70.8158 225.271 71.5792 226.09 72.1545C226.908 72.7297 227.86 73.0174 228.944 73.0174C230.604 73.0174 231.898 72.5195 232.827 71.5239C233.756 70.5282 234.221 69.1564 234.221 67.4084V65.8486H234.088C233.513 66.7115 232.728 67.3974 231.732 67.9063C230.758 68.393 229.696 68.6364 228.546 68.6364C226.422 68.6364 224.596 67.8067 223.07 66.1473C221.565 64.4436 220.813 62.3859 220.813 59.9741C220.813 57.5624 221.565 55.5157 223.07 53.8342C224.596 52.1526 226.422 51.3118 228.546 51.3118C229.696 51.3118 230.758 51.5663 231.732 52.0752C232.728 52.5619 233.513 53.2368 234.088 54.0997H234.221V51.8428H237.142V67.4084C237.142 70.0193 236.401 72.066 234.918 73.5484C233.414 75.053 231.422 75.8052 228.944 75.8052ZM243.918 44.3421V68.1054H240.865V44.3421H243.918ZM254.778 68.6364C252.388 68.6364 250.419 67.8178 248.87 66.1805C247.322 64.5431 246.547 62.4744 246.547 59.9741C246.547 57.496 247.299 55.4383 248.804 53.801C250.309 52.1415 252.234 51.3118 254.579 51.3118C256.991 51.3118 258.904 52.0973 260.321 53.6682C261.759 55.217 262.478 57.3965 262.478 60.2064L262.445 60.5383H249.667C249.711 62.1314 250.242 63.4147 251.26 64.3882C252.278 65.3618 253.495 65.8486 254.911 65.8486C256.858 65.8486 258.385 64.875 259.491 62.9279L262.212 64.2555C261.482 65.6273 260.464 66.7004 259.159 67.4748C257.876 68.2492 256.415 68.6364 254.778 68.6364ZM249.899 58.016H259.225C259.137 56.8876 258.672 55.9583 257.831 55.2281C257.013 54.4758 255.906 54.0997 254.512 54.0997C253.362 54.0997 252.366 54.4537 251.525 55.1617C250.707 55.8698 250.165 56.8212 249.899 58.016ZM276.147 58.4806V68.1054H273.094V44.3421H281.192C283.249 44.3421 284.997 45.0281 286.436 46.3999C287.896 47.7717 288.626 49.4422 288.626 51.4114C288.626 53.4248 287.896 55.1064 286.436 56.4561C285.019 57.8058 283.272 58.4806 281.192 58.4806H276.147ZM276.147 47.2628V55.56H281.258C282.475 55.56 283.482 55.1507 284.278 54.332C285.097 53.5134 285.506 52.5398 285.506 51.4114C285.506 50.3051 285.097 49.3426 284.278 48.524C283.482 47.6832 282.475 47.2628 281.258 47.2628H276.147ZM292.872 63.1271C292.872 63.9236 293.203 64.5874 293.867 65.1184C294.553 65.6494 295.35 65.9149 296.257 65.9149C297.54 65.9149 298.68 65.4392 299.675 64.4878C300.693 63.5364 301.202 62.419 301.202 61.1357C300.251 60.3835 298.923 60.0073 297.219 60.0073C295.98 60.0073 294.94 60.306 294.1 60.9034C293.281 61.5008 292.872 62.242 292.872 63.1271ZM296.821 51.3118C299.078 51.3118 300.859 51.9203 302.164 53.1372C303.47 54.332 304.123 55.9804 304.123 58.0824V68.1054H301.202V65.8486H301.069C299.808 67.7071 298.127 68.6364 296.025 68.6364C294.232 68.6364 292.728 68.1054 291.511 67.0434C290.316 65.9813 289.719 64.6538 289.719 63.0607C289.719 61.3791 290.349 60.0405 291.61 59.0448C292.894 58.0492 294.597 57.5513 296.722 57.5513C298.536 57.5513 300.029 57.8832 301.202 58.547V57.85C301.202 56.788 300.782 55.8919 299.941 55.1617C299.1 54.4095 298.115 54.0333 296.987 54.0333C295.283 54.0333 293.934 54.7524 292.938 56.1906L290.25 54.498C291.732 52.3739 293.923 51.3118 296.821 51.3118ZM326.617 68.3709C325.289 68.3709 324.183 67.9616 323.298 67.1429C322.435 66.3243 321.993 65.1848 321.97 63.7245V54.6307H319.116V51.8428H321.97V46.8645H325.024V51.8428H329.007V54.6307H325.024V62.7288C325.024 63.813 325.234 64.5542 325.654 64.9525C326.075 65.3286 326.551 65.5167 327.082 65.5167C327.325 65.5167 327.557 65.4945 327.779 65.4503C328.022 65.3839 328.243 65.3065 328.442 65.218L329.405 67.9395C328.608 68.2271 327.679 68.3709 326.617 68.3709ZM307.567 51.8428H310.487V54.498H310.62C311.527 52.4181 313.397 51.3782 316.229 51.3782L316.859 51.4446V54.6307L315.499 54.498C314.083 54.498 312.91 54.9405 311.981 55.8255C311.073 56.6884 310.62 57.7947 310.62 59.1444V68.1054H307.567V51.8428ZM332.102 51.8428H335.022V54.0997H335.155C335.62 53.3032 336.328 52.6394 337.279 52.1084C338.253 51.5773 339.259 51.3118 340.299 51.3118C342.291 51.3118 343.817 51.8871 344.879 53.0376C345.964 54.1661 346.506 55.7813 346.506 57.8832V68.1054H343.452V58.0824C343.386 55.4272 342.047 54.0997 339.436 54.0997C338.219 54.0997 337.202 54.5975 336.383 55.5932C335.564 56.5667 335.155 57.7394 335.155 59.1112V68.1054H332.102V51.8428ZM357.391 68.6364C355.002 68.6364 353.033 67.8178 351.484 66.1805C349.935 64.5431 349.161 62.4744 349.161 59.9741C349.161 57.496 349.913 55.4383 351.417 53.801C352.922 52.1415 354.847 51.3118 357.192 51.3118C359.604 51.3118 361.518 52.0973 362.934 53.6682C364.372 55.217 365.091 57.3965 365.091 60.2064L365.058 60.5383H352.28C352.325 62.1314 352.856 63.4147 353.873 64.3882C354.891 65.3618 356.108 65.8486 357.524 65.8486C359.471 65.8486 360.998 64.875 362.104 62.9279L364.826 64.2555C364.096 65.6273 363.078 66.7004 361.772 67.4748C360.489 68.2492 359.029 68.6364 357.391 68.6364ZM352.513 58.016H361.839C361.75 56.8876 361.286 55.9583 360.445 55.2281C359.626 54.4758 358.52 54.0997 357.126 54.0997C355.975 54.0997 354.98 54.4537 354.139 55.1617C353.32 55.8698 352.778 56.8212 352.513 58.016ZM370.937 68.1054H367.883V51.8428H370.804V54.498H370.937C371.247 53.635 371.877 52.9049 372.829 52.3075C373.802 51.688 374.754 51.3782 375.683 51.3782C376.568 51.3782 377.32 51.511 377.94 51.7765L377.01 54.7303C376.634 54.5754 376.037 54.498 375.218 54.498C374.068 54.498 373.061 54.9626 372.198 55.8919C371.357 56.8212 370.937 57.9053 370.937 59.1444V68.1054Z" fill="#0C030E"/>
<path d="M160.955 85.9458V95.3875H159.571V85.9458H156.564V84.6227H163.961V85.9458H160.955ZM165.652 95.3875H164.269V88.0205H165.592V89.2233H165.652C165.793 88.8324 166.078 88.5016 166.509 88.231C166.95 87.9504 167.381 87.81 167.802 87.81C168.203 87.81 168.544 87.8702 168.825 87.9905L168.404 89.3285C168.233 89.2584 167.963 89.2233 167.592 89.2233C167.071 89.2233 166.615 89.4338 166.224 89.8547C165.843 90.2757 165.652 90.7668 165.652 91.3281V95.3875ZM176.196 95.3875H174.873V94.3651H174.813C174.602 94.7259 174.276 95.0266 173.835 95.2672C173.404 95.5077 172.953 95.628 172.482 95.628C171.58 95.628 170.884 95.3724 170.392 94.8612C169.911 94.34 169.671 93.6034 169.671 92.6512V88.0205H171.054V92.561C171.084 93.7637 171.69 94.3651 172.873 94.3651C173.424 94.3651 173.885 94.1446 174.256 93.7036C174.627 93.2525 174.813 92.7163 174.813 92.0949V88.0205H176.196V95.3875ZM183.444 93.3428C183.444 93.9842 183.163 94.5255 182.602 94.9665C182.041 95.4075 181.334 95.628 180.482 95.628C179.741 95.628 179.089 95.4376 178.528 95.0567C177.967 94.6658 177.566 94.1546 177.325 93.5232L178.558 92.997C178.738 93.438 178.999 93.7838 179.34 94.0343C179.69 94.2749 180.071 94.3952 180.482 94.3952C180.923 94.3952 181.289 94.3 181.58 94.1095C181.88 93.9191 182.031 93.6936 182.031 93.433C182.031 92.9619 181.67 92.6161 180.948 92.3956L179.685 92.0799C178.252 91.719 177.536 91.0274 177.536 90.0051C177.536 89.3335 177.806 88.7973 178.347 88.3964C178.899 87.9854 179.6 87.78 180.452 87.78C181.104 87.78 181.69 87.9353 182.211 88.246C182.742 88.5568 183.113 88.9727 183.324 89.4939L182.091 90.0051C181.951 89.6944 181.72 89.4538 181.399 89.2834C181.089 89.103 180.738 89.0128 180.347 89.0128C179.986 89.0128 179.66 89.103 179.37 89.2834C179.089 89.4638 178.949 89.6843 178.949 89.9449C178.949 90.3659 179.345 90.6666 180.136 90.847L181.249 91.1327C182.712 91.4935 183.444 92.2302 183.444 93.3428ZM187.491 95.5077C186.89 95.5077 186.389 95.3223 185.988 94.9514C185.597 94.5806 185.397 94.0644 185.386 93.4029V89.2834H184.094V88.0205H185.386V85.7653H186.77V88.0205H188.574V89.2834H186.77V92.9519C186.77 93.443 186.865 93.7788 187.055 93.9592C187.246 94.1296 187.461 94.2148 187.702 94.2148C187.812 94.2148 187.917 94.2047 188.018 94.1847C188.128 94.1546 188.228 94.1195 188.318 94.0794L188.754 95.3123C188.393 95.4426 187.972 95.5077 187.491 95.5077ZM193.124 95.628C192.041 95.628 191.149 95.2572 190.448 94.5154C189.746 93.7737 189.395 92.8366 189.395 91.704C189.395 90.5814 189.736 89.6493 190.418 88.9076C191.099 88.1558 191.971 87.78 193.034 87.78C194.126 87.78 194.993 88.1358 195.635 88.8474C196.286 89.549 196.612 90.5363 196.612 91.8092L196.597 91.9596H190.808C190.828 92.6812 191.069 93.2626 191.53 93.7036C191.991 94.1446 192.542 94.3651 193.184 94.3651C194.066 94.3651 194.758 93.9241 195.259 93.0421L196.491 93.6434C196.161 94.2649 195.7 94.751 195.108 95.1018C194.527 95.4526 193.865 95.628 193.124 95.628ZM190.914 90.8169H195.138C195.098 90.3058 194.888 89.8848 194.507 89.554C194.136 89.2133 193.635 89.0429 193.003 89.0429C192.482 89.0429 192.031 89.2032 191.65 89.524C191.28 89.8447 191.034 90.2757 190.914 90.8169ZM201.258 94.3651C201.939 94.3651 202.496 94.1195 202.927 93.6284C203.378 93.1373 203.603 92.4958 203.603 91.704C203.603 90.9322 203.378 90.2958 202.927 89.7946C202.485 89.2934 201.929 89.0429 201.258 89.0429C200.596 89.0429 200.04 89.2934 199.589 89.7946C199.138 90.2958 198.912 90.9322 198.912 91.704C198.912 92.4858 199.138 93.1222 199.589 93.6134C200.04 94.1145 200.596 94.3651 201.258 94.3651ZM201.032 95.628C200.07 95.628 199.243 95.2471 198.551 94.4854C197.87 93.7136 197.529 92.7865 197.529 91.704C197.529 90.6215 197.87 89.6944 198.551 88.9226C199.243 88.1608 200.07 87.78 201.032 87.78C201.573 87.78 202.065 87.8952 202.506 88.1258C202.957 88.3563 203.302 88.662 203.543 89.0429H203.603L203.543 88.0205V84.6227H204.926V95.3875H203.603V94.3651H203.543C203.302 94.746 202.957 95.0517 202.506 95.2822C202.065 95.5127 201.573 95.628 201.032 95.628ZM214.93 95.628C213.336 95.628 212.003 95.0918 210.93 94.0193C209.868 92.9468 209.337 91.6088 209.337 90.0051C209.337 88.4014 209.868 87.0683 210.93 86.0059C211.993 84.9234 213.326 84.3822 214.93 84.3822C216.553 84.3822 217.871 84.9685 218.884 86.1412L217.891 87.1034C217.12 86.1713 216.132 85.7052 214.93 85.7052C213.737 85.7052 212.74 86.1061 211.938 86.908C211.146 87.6998 210.75 88.7322 210.75 90.0051C210.75 91.278 211.146 92.3104 211.938 93.1022C212.74 93.904 213.737 94.305 214.93 94.305C216.182 94.305 217.27 93.7788 218.192 92.7263L219.199 93.7036C218.688 94.315 218.062 94.7911 217.32 95.1319C216.578 95.4626 215.782 95.628 214.93 95.628ZM219.861 91.704C219.861 90.5714 220.217 89.6342 220.928 88.8925C221.65 88.1508 222.557 87.78 223.649 87.78C224.742 87.78 225.644 88.1508 226.356 88.8925C227.077 89.6342 227.438 90.5714 227.438 91.704C227.438 92.8466 227.077 93.7838 226.356 94.5154C225.644 95.2572 224.742 95.628 223.649 95.628C222.557 95.628 221.65 95.2572 220.928 94.5154C220.217 93.7737 219.861 92.8366 219.861 91.704ZM221.244 91.704C221.244 92.4958 221.474 93.1373 221.935 93.6284C222.397 94.1195 222.968 94.3651 223.649 94.3651C224.331 94.3651 224.902 94.1195 225.363 93.6284C225.824 93.1373 226.055 92.4958 226.055 91.704C226.055 90.9222 225.824 90.2857 225.363 89.7946C224.892 89.2934 224.321 89.0429 223.649 89.0429C222.978 89.0429 222.407 89.2934 221.935 89.7946C221.474 90.2857 221.244 90.9222 221.244 91.704ZM232.229 94.3651C232.891 94.3651 233.447 94.1145 233.898 93.6134C234.349 93.1222 234.575 92.4858 234.575 91.704C234.575 90.9322 234.349 90.2958 233.898 89.7946C233.447 89.2934 232.891 89.0429 232.229 89.0429C231.558 89.0429 230.997 89.2934 230.546 89.7946C230.105 90.2958 229.884 90.9322 229.884 91.704C229.884 92.4858 230.105 93.1273 230.546 93.6284C230.997 94.1195 231.558 94.3651 232.229 94.3651ZM232.455 95.628C231.914 95.628 231.418 95.5127 230.967 95.2822C230.526 95.0517 230.185 94.746 229.944 94.3651H229.884L229.944 95.3875V98.6349H228.561V88.0205H229.884V89.0429H229.944C230.185 88.662 230.526 88.3563 230.967 88.1258C231.418 87.8952 231.914 87.78 232.455 87.78C233.427 87.78 234.249 88.1608 234.921 88.9226C235.612 89.6944 235.958 90.6215 235.958 91.704C235.958 92.7965 235.612 93.7236 234.921 94.4854C234.249 95.2471 233.427 95.628 232.455 95.628ZM243.516 88.0205L238.901 98.6349H237.472L239.186 94.9214L236.149 88.0205H237.653L239.848 93.3127H239.878L242.013 88.0205H243.516ZM245.802 95.3875H244.419V88.0205H245.742V89.2233H245.802C245.943 88.8324 246.228 88.5016 246.659 88.231C247.1 87.9504 247.531 87.81 247.952 87.81C248.353 87.81 248.694 87.8702 248.975 87.9905L248.554 89.3285C248.383 89.2584 248.113 89.2233 247.742 89.2233C247.221 89.2233 246.765 89.4338 246.374 89.8547C245.993 90.2757 245.802 90.7668 245.802 91.3281V95.3875ZM251.67 85.4797C251.67 85.7503 251.575 85.9808 251.384 86.1713C251.194 86.3617 250.963 86.4569 250.693 86.4569C250.422 86.4569 250.192 86.3617 250.001 86.1713C249.811 85.9808 249.716 85.7503 249.716 85.4797C249.716 85.2091 249.811 84.9785 250.001 84.7881C250.192 84.5977 250.422 84.5024 250.693 84.5024C250.963 84.5024 251.194 84.5977 251.384 84.7881C251.575 84.9785 251.67 85.2091 251.67 85.4797ZM251.384 88.0205V95.3875H250.001V88.0205H251.384ZM256.419 94.3651C257.1 94.3651 257.656 94.1195 258.087 93.6284C258.538 93.1373 258.764 92.4958 258.764 91.704C258.764 90.9322 258.538 90.2958 258.087 89.7946C257.646 89.2934 257.09 89.0429 256.419 89.0429C255.757 89.0429 255.201 89.2934 254.75 89.7946C254.299 90.2958 254.073 90.9322 254.073 91.704C254.073 92.4858 254.299 93.1222 254.75 93.6134C255.201 94.1145 255.757 94.3651 256.419 94.3651ZM256.373 98.8755C255.963 98.8755 255.577 98.8203 255.216 98.7101C254.855 98.6099 254.524 98.4645 254.224 98.2741C253.933 98.0836 253.682 97.8581 253.472 97.5975C253.261 97.3369 253.101 97.0463 252.991 96.7255L254.299 96.1843C254.449 96.6153 254.71 96.9611 255.081 97.2217C255.451 97.4823 255.882 97.6126 256.373 97.6126C257.125 97.6126 257.712 97.387 258.133 96.936C258.553 96.485 258.764 95.8635 258.764 95.0717V94.3651H258.704C258.443 94.756 258.087 95.0667 257.636 95.2972C257.195 95.5178 256.714 95.628 256.193 95.628C255.231 95.628 254.404 95.2521 253.712 94.5004C253.031 93.7286 252.69 92.7965 252.69 91.704C252.69 90.6115 253.031 89.6843 253.712 88.9226C254.404 88.1608 255.231 87.78 256.193 87.78C256.714 87.78 257.195 87.8952 257.636 88.1258C258.087 88.3463 258.443 88.652 258.704 89.0429H258.764V88.0205H260.087V95.0717C260.087 96.2544 259.751 97.1816 259.08 97.8531C258.398 98.5347 257.496 98.8755 256.373 98.8755ZM261.773 84.6227H263.157V88.0205L263.097 89.0429H263.157C263.367 88.682 263.688 88.3814 264.119 88.1408C264.56 87.9002 265.016 87.78 265.487 87.78C266.389 87.78 267.081 88.0406 267.562 88.5618C268.053 89.0729 268.298 89.8046 268.298 90.7568V95.3875H266.915V91.0274C266.915 89.7044 266.329 89.0429 265.156 89.0429C264.595 89.0429 264.119 89.2784 263.728 89.7495C263.347 90.2106 263.157 90.7518 263.157 91.3732V95.3875H261.773V84.6227ZM272.457 95.5077C271.856 95.5077 271.355 95.3223 270.954 94.9514C270.563 94.5806 270.362 94.0644 270.352 93.4029V89.2834H269.059V88.0205H270.352V85.7653H271.735V88.0205H273.54V89.2834H271.735V92.9519C271.735 93.443 271.831 93.7788 272.021 93.9592C272.211 94.1296 272.427 94.2148 272.668 94.2148C272.778 94.2148 272.883 94.2047 272.983 94.1847C273.094 94.1546 273.194 94.1195 273.284 94.0794L273.72 95.3123C273.359 95.4426 272.938 95.5077 272.457 95.5077ZM279.783 85.9458V89.7345H282.008C282.569 89.7345 283.045 89.554 283.436 89.1932C283.827 88.8224 284.022 88.3663 284.022 87.8251C284.022 87.3239 283.837 86.8879 283.466 86.5171C283.105 86.1362 282.649 85.9458 282.098 85.9458H279.783ZM279.783 95.3875H278.399V84.6227H282.068C283 84.6227 283.792 84.9334 284.443 85.5549C285.105 86.1663 285.435 86.923 285.435 87.8251C285.435 88.5668 285.19 89.2283 284.699 89.8096C284.218 90.3809 283.606 90.7468 282.865 90.9072L282.835 90.9523L285.856 95.3273V95.3875H284.218L281.316 91.0274H279.783V95.3875ZM290.011 95.628C288.929 95.628 288.037 95.2572 287.335 94.5154C286.634 93.7737 286.283 92.8366 286.283 91.704C286.283 90.5814 286.624 89.6493 287.305 88.9076C287.987 88.1558 288.859 87.78 289.921 87.78C291.014 87.78 291.881 88.1358 292.522 88.8474C293.174 89.549 293.499 90.5363 293.499 91.8092L293.484 91.9596H287.696C287.716 92.6812 287.957 93.2626 288.418 93.7036C288.879 94.1446 289.43 94.3651 290.072 94.3651C290.954 94.3651 291.645 93.9241 292.146 93.0421L293.379 93.6434C293.048 94.2649 292.587 94.751 291.996 95.1018C291.415 95.4526 290.753 95.628 290.011 95.628ZM287.801 90.8169H292.026C291.986 90.3058 291.775 89.8848 291.395 89.554C291.024 89.2133 290.523 89.0429 289.891 89.0429C289.37 89.0429 288.919 89.2032 288.538 89.524C288.167 89.8447 287.922 90.2757 287.801 90.8169ZM296.147 95.3875H294.764V88.0205H296.087V89.0429H296.147C296.358 88.682 296.679 88.3814 297.11 88.1408C297.551 87.9002 297.987 87.78 298.418 87.78C298.959 87.78 299.435 87.9053 299.846 88.1558C300.257 88.4064 300.558 88.7522 300.748 89.1932C301.359 88.2511 302.206 87.78 303.289 87.78C304.141 87.78 304.797 88.0406 305.258 88.5618C305.719 89.083 305.95 89.8247 305.95 90.7869V95.3875H304.567V90.9974C304.567 90.3058 304.442 89.8096 304.191 89.5089C303.94 89.1982 303.519 89.0429 302.928 89.0429C302.397 89.0429 301.951 89.2684 301.59 89.7194C301.229 90.1705 301.049 90.7017 301.049 91.3131V95.3875H299.666V90.9974C299.666 90.3058 299.54 89.8096 299.29 89.5089C299.039 89.1982 298.618 89.0429 298.027 89.0429C297.496 89.0429 297.05 89.2684 296.689 89.7194C296.328 90.1705 296.147 90.7017 296.147 91.3131V95.3875ZM307.146 91.704C307.146 90.5714 307.502 89.6342 308.214 88.8925C308.935 88.1508 309.842 87.78 310.935 87.78C312.027 87.78 312.929 88.1508 313.641 88.8925C314.363 89.6342 314.724 90.5714 314.724 91.704C314.724 92.8466 314.363 93.7838 313.641 94.5154C312.929 95.2572 312.027 95.628 310.935 95.628C309.842 95.628 308.935 95.2572 308.214 94.5154C307.502 93.7737 307.146 92.8366 307.146 91.704ZM308.529 91.704C308.529 92.4958 308.76 93.1373 309.221 93.6284C309.682 94.1195 310.253 94.3651 310.935 94.3651C311.616 94.3651 312.188 94.1195 312.649 93.6284C313.11 93.1373 313.34 92.4958 313.34 91.704C313.34 90.9222 313.11 90.2857 312.649 89.7946C312.178 89.2934 311.606 89.0429 310.935 89.0429C310.263 89.0429 309.692 89.2934 309.221 89.7946C308.76 90.2857 308.529 90.9222 308.529 91.704ZM319.411 95.3875H318.028L315.051 88.0205H316.555L318.72 93.7337H318.75L320.945 88.0205H322.418L319.411 95.3875ZM324.182 93.1323C324.182 93.4931 324.332 93.7938 324.633 94.0343C324.943 94.2749 325.304 94.3952 325.715 94.3952C326.296 94.3952 326.813 94.1797 327.264 93.7487C327.725 93.3177 327.955 92.8115 327.955 92.2302C327.524 91.8894 326.923 91.719 326.151 91.719C325.59 91.719 325.119 91.8543 324.738 92.125C324.367 92.3956 324.182 92.7313 324.182 93.1323ZM325.971 87.78C326.993 87.78 327.8 88.0556 328.391 88.6069C328.983 89.1481 329.278 89.8948 329.278 90.847V95.3875H327.955V94.3651H327.895C327.324 95.207 326.562 95.628 325.61 95.628C324.798 95.628 324.116 95.3875 323.565 94.9063C323.024 94.4252 322.753 93.8239 322.753 93.1022C322.753 92.3405 323.039 91.7341 323.61 91.283C324.192 90.832 324.963 90.6065 325.926 90.6065C326.748 90.6065 327.424 90.7568 327.955 91.0575V90.7418C327.955 90.2607 327.765 89.8547 327.384 89.524C327.003 89.1832 326.557 89.0128 326.046 89.0128C325.274 89.0128 324.663 89.3386 324.212 89.99L322.994 89.2233C323.665 88.2611 324.658 87.78 325.971 87.78ZM332.222 84.6227V95.3875H330.838V84.6227H332.222ZM338.834 91.0274V95.3875H337.451V84.6227H341.119C342.052 84.6227 342.843 84.9334 343.495 85.5549C344.156 86.1763 344.487 86.933 344.487 87.8251C344.487 88.7372 344.156 89.4989 343.495 90.1103C342.853 90.7217 342.062 91.0274 341.119 91.0274H338.834ZM338.834 85.9458V89.7044H341.15C341.701 89.7044 342.157 89.519 342.518 89.1481C342.889 88.7773 343.074 88.3363 343.074 87.8251C343.074 87.3239 342.889 86.8879 342.518 86.5171C342.157 86.1362 341.701 85.9458 341.15 85.9458H338.834ZM347.08 95.3875H345.697V88.0205H347.02V89.2233H347.08C347.22 88.8324 347.506 88.5016 347.937 88.231C348.378 87.9504 348.809 87.81 349.23 87.81C349.631 87.81 349.972 87.8702 350.252 87.9905L349.831 89.3285C349.661 89.2584 349.39 89.2233 349.019 89.2233C348.498 89.2233 348.042 89.4338 347.651 89.8547C347.27 90.2757 347.08 90.7668 347.08 91.3281V95.3875ZM350.282 91.704C350.282 90.5714 350.638 89.6342 351.35 88.8925C352.072 88.1508 352.979 87.78 354.071 87.78C355.164 87.78 356.066 88.1508 356.777 88.8925C357.499 89.6342 357.86 90.5714 357.86 91.704C357.86 92.8466 357.499 93.7838 356.777 94.5154C356.066 95.2572 355.164 95.628 354.071 95.628C352.979 95.628 352.072 95.2572 351.35 94.5154C350.638 93.7737 350.282 92.8366 350.282 91.704ZM351.666 91.704C351.666 92.4958 351.896 93.1373 352.357 93.6284C352.818 94.1195 353.39 94.3651 354.071 94.3651C354.753 94.3651 355.324 94.1195 355.785 93.6284C356.246 93.1373 356.477 92.4958 356.477 91.704C356.477 90.9222 356.246 90.2857 355.785 89.7946C355.314 89.2934 354.743 89.0429 354.071 89.0429C353.4 89.0429 352.828 89.2934 352.357 89.7946C351.896 90.2857 351.666 90.9222 351.666 91.704ZM362.424 94.3651C363.105 94.3651 363.662 94.1195 364.093 93.6284C364.544 93.1373 364.769 92.4958 364.769 91.704C364.769 90.9322 364.544 90.2958 364.093 89.7946C363.652 89.2934 363.095 89.0429 362.424 89.0429C361.762 89.0429 361.206 89.2934 360.755 89.7946C360.304 90.2958 360.078 90.9322 360.078 91.704C360.078 92.4858 360.304 93.1222 360.755 93.6134C361.206 94.1145 361.762 94.3651 362.424 94.3651ZM362.379 98.8755C361.968 98.8755 361.582 98.8203 361.221 98.7101C360.86 98.6099 360.53 98.4645 360.229 98.2741C359.938 98.0836 359.688 97.8581 359.477 97.5975C359.267 97.3369 359.106 97.0463 358.996 96.7255L360.304 96.1843C360.454 96.6153 360.715 96.9611 361.086 97.2217C361.457 97.4823 361.888 97.6126 362.379 97.6126C363.13 97.6126 363.717 97.387 364.138 96.936C364.559 96.485 364.769 95.8635 364.769 95.0717V94.3651H364.709C364.449 94.756 364.093 95.0667 363.642 95.2972C363.201 95.5178 362.72 95.628 362.198 95.628C361.236 95.628 360.409 95.2521 359.718 94.5004C359.036 93.7286 358.695 92.7965 358.695 91.704C358.695 90.6115 359.036 89.6843 359.718 88.9226C360.409 88.1608 361.236 87.78 362.198 87.78C362.72 87.78 363.201 87.8952 363.642 88.1258C364.093 88.3463 364.449 88.652 364.709 89.0429H364.769V88.0205H366.092V95.0717C366.092 96.2544 365.757 97.1816 365.085 97.8531C364.403 98.5347 363.501 98.8755 362.379 98.8755ZM369.162 95.3875H367.779V88.0205H369.102V89.2233H369.162C369.302 88.8324 369.588 88.5016 370.019 88.231C370.46 87.9504 370.891 87.81 371.312 87.81C371.713 87.81 372.054 87.8702 372.334 87.9905L371.913 89.3285C371.743 89.2584 371.472 89.2233 371.101 89.2233C370.58 89.2233 370.124 89.4338 369.733 89.8547C369.352 90.2757 369.162 90.7668 369.162 91.3281V95.3875ZM373.954 93.1323C373.954 93.4931 374.105 93.7938 374.405 94.0343C374.716 94.2749 375.077 94.3952 375.488 94.3952C376.069 94.3952 376.585 94.1797 377.036 93.7487C377.497 93.3177 377.728 92.8115 377.728 92.2302C377.297 91.8894 376.695 91.719 375.924 91.719C375.362 91.719 374.891 91.8543 374.51 92.125C374.14 92.3956 373.954 92.7313 373.954 93.1323ZM375.743 87.78C376.766 87.78 377.572 88.0556 378.164 88.6069C378.755 89.1481 379.051 89.8948 379.051 90.847V95.3875H377.728V94.3651H377.668C377.096 95.207 376.335 95.628 375.382 95.628C374.571 95.628 373.889 95.3875 373.338 94.9063C372.797 94.4252 372.526 93.8239 372.526 93.1022C372.526 92.3405 372.812 91.7341 373.383 91.283C373.964 90.832 374.736 90.6065 375.698 90.6065C376.52 90.6065 377.197 90.7568 377.728 91.0575V90.7418C377.728 90.2607 377.537 89.8547 377.157 89.524C376.776 89.1832 376.33 89.0128 375.818 89.0128C375.047 89.0128 374.435 89.3386 373.984 89.99L372.766 89.2233C373.438 88.2611 374.43 87.78 375.743 87.78ZM381.994 95.3875H380.611V88.0205H381.934V89.0429H381.994C382.205 88.682 382.525 88.3814 382.956 88.1408C383.397 87.9002 383.833 87.78 384.264 87.78C384.806 87.78 385.282 87.9053 385.693 88.1558C386.104 88.4064 386.404 88.7522 386.595 89.1932C387.206 88.2511 388.053 87.78 389.136 87.78C389.988 87.78 390.644 88.0406 391.105 88.5618C391.566 89.083 391.797 89.8247 391.797 90.7869V95.3875H390.413V90.9974C390.413 90.3058 390.288 89.8096 390.038 89.5089C389.787 89.1982 389.366 89.0429 388.775 89.0429C388.243 89.0429 387.797 89.2684 387.437 89.7194C387.076 90.1705 386.895 90.7017 386.895 91.3131V95.3875H385.512V90.9974C385.512 90.3058 385.387 89.8096 385.136 89.5089C384.886 89.1982 384.465 89.0429 383.873 89.0429C383.342 89.0429 382.896 89.2684 382.535 89.7194C382.175 90.1705 381.994 90.7017 381.994 91.3131V95.3875Z" fill="#0C030E"/>
</svg>
