<svg width="65" height="64" viewBox="0 0 65 64" fill="none" xmlns="http://www.w3.org/2000/svg">
<path d="M12.6665 4.01807C8.2685 4.01807 4.6665 7.62007 4.6665 12.0181V51.9181C4.6665 56.3141 8.2685 59.9181 12.6665 59.9181H28.6665C29.1969 59.9181 29.7056 59.7074 30.0807 59.3323C30.4558 58.9572 30.6665 58.4485 30.6665 57.9181C30.6665 57.3876 30.4558 56.8789 30.0807 56.5039C29.7056 56.1288 29.1969 55.9181 28.6665 55.9181H12.6665C10.4165 55.9181 8.6665 54.1661 8.6665 51.9181V23.9181H56.6665V29.9661C56.6665 30.4965 56.8772 31.0052 57.2523 31.3803C57.6274 31.7554 58.1361 31.9661 58.6665 31.9661C59.1969 31.9661 59.7056 31.7554 60.0807 31.3803C60.4558 31.0052 60.6665 30.4965 60.6665 29.9661V12.0201C60.6665 7.62207 57.0645 4.02007 52.6665 4.02007L12.6665 4.01807ZM12.6665 8.01807H52.6665C54.9165 8.01807 56.6665 9.76807 56.6665 12.0181V19.9181H8.6665V12.0181C8.6665 9.76807 10.4165 8.01807 12.6665 8.01807Z" fill="#C11CDE"/>
<path d="M16.6665 13.916C16.6665 14.4464 16.4558 14.9552 16.0807 15.3302C15.7056 15.7053 15.1969 15.916 14.6665 15.916C14.1361 15.916 13.6274 15.7053 13.2523 15.3302C12.8772 14.9552 12.6665 14.4464 12.6665 13.916C12.6665 13.3856 12.8772 12.8769 13.2523 12.5018C13.6274 12.1267 14.1361 11.916 14.6665 11.916C15.1969 11.916 15.7056 12.1267 16.0807 12.5018C16.4558 12.8769 16.6665 13.3856 16.6665 13.916ZM24.6665 13.916C24.6665 14.4464 24.4558 14.9552 24.0807 15.3302C23.7056 15.7053 23.1969 15.916 22.6665 15.916C22.1361 15.916 21.6274 15.7053 21.2523 15.3302C20.8772 14.9552 20.6665 14.4464 20.6665 13.916C20.6665 13.3856 20.8772 12.8769 21.2523 12.5018C21.6274 12.1267 22.1361 11.916 22.6665 11.916C23.1969 11.916 23.7056 12.1267 24.0807 12.5018C24.4558 12.8769 24.6665 13.3856 24.6665 13.916ZM32.6665 13.916C32.6665 14.4464 32.4558 14.9552 32.0807 15.3302C31.7056 15.7053 31.1969 15.916 30.6665 15.916C30.1361 15.916 29.6274 15.7053 29.2523 15.3302C28.8772 14.9552 28.6665 14.4464 28.6665 13.916C28.6665 13.3856 28.8772 12.8769 29.2523 12.5018C29.6274 12.1267 30.1361 11.916 30.6665 11.916C31.1969 11.916 31.7056 12.1267 32.0807 12.5018C32.4558 12.8769 32.6665 13.3856 32.6665 13.916ZM39.0845 30.63C37.1665 30.632 35.7685 31.25 34.9925 32.722L29.0125 42.756C28.5659 43.5364 28.3317 44.4202 28.3335 45.3194C28.3352 46.2185 28.5728 47.1014 29.0225 47.88L34.6325 57.576C35.0563 58.3077 35.6651 58.9151 36.3976 59.3374C37.1302 59.7597 37.9609 59.982 38.8065 59.982L50.3225 59.966C51.1238 59.9639 51.9106 59.7513 52.6038 59.3494C53.2971 58.9475 53.8725 58.3704 54.2725 57.676L60.0385 47.646C60.4518 46.9253 60.6686 46.1087 60.6672 45.2779C60.6658 44.4472 60.4462 43.6313 60.0305 42.912L54.1905 32.818C53.8021 32.1478 53.2444 31.5914 52.5733 31.2045C51.9022 30.8177 51.1411 30.6141 50.3665 30.614L39.0845 30.63ZM50.3705 34.614C50.5205 34.614 50.6525 34.69 50.7305 34.822L56.5705 44.916C56.6359 45.028 56.6703 45.1553 56.6703 45.285C56.6703 45.4147 56.6359 45.542 56.5705 45.654L50.8025 55.684C50.7543 55.7699 50.684 55.8414 50.5989 55.891C50.5138 55.9406 50.417 55.9665 50.3185 55.966L38.8025 55.982C38.6585 55.9826 38.5169 55.945 38.3921 55.8729C38.2674 55.8009 38.164 55.6971 38.0925 55.572L32.4825 45.876C32.3829 45.7056 32.33 45.5119 32.3293 45.3146C32.3286 45.1172 32.3801 44.9231 32.4785 44.752L38.3105 34.87C38.4105 34.662 38.6025 34.596 38.8105 34.622L50.3705 34.614Z" fill="#C11CDE"/>
<path d="M38.4327 39.2642C38.0578 39.6393 37.8472 40.1479 37.8472 40.6782C37.8472 41.2085 38.0578 41.7171 38.4327 42.0922L41.6387 45.2982L38.4327 48.5062C38.0684 48.8834 37.8668 49.3886 37.8714 49.913C37.8759 50.4374 38.0863 50.939 38.4571 51.3098C38.8279 51.6807 39.3295 51.891 39.8539 51.8955C40.3783 51.9001 40.8835 51.6985 41.2607 51.3342L44.4707 48.1282L47.6787 51.3342C48.0559 51.6985 48.5612 51.9001 49.0855 51.8955C49.6099 51.891 50.1116 51.6807 50.4824 51.3098C50.8532 50.939 51.0635 50.4374 51.0681 49.913C51.0726 49.3886 50.8711 48.8834 50.5067 48.5062L47.2987 45.2982L50.5067 42.0922C50.8817 41.7171 51.0923 41.2085 51.0923 40.6782C51.0923 40.1479 50.8817 39.6393 50.5067 39.2642C49.5847 38.4302 48.4327 38.5482 47.6787 39.2642L44.4707 42.4702L41.2607 39.2642C40.3507 38.3962 39.2887 38.4882 38.4327 39.2642Z" fill="#C11CDE"/>
</svg>
