<svg width="64" height="64" viewBox="0 0 64 64" fill="none" xmlns="http://www.w3.org/2000/svg">
<path d="M46.9852 55.1111C52.6745 55.1111 57.3046 50.5147 57.3046 44.864C57.3046 39.2133 52.6745 34.6147 46.9852 34.6147C43.0813 34.6147 39.7177 36.8037 37.9643 39.9875H26.1052C24.354 36.8037 20.9904 34.6147 17.0864 34.6147C11.3971 34.6147 6.76708 39.2133 6.76708 44.864C6.76708 50.5147 11.3971 55.109 17.0864 55.109C22.7758 55.109 27.4037 50.5147 27.4037 44.864C27.4037 44.6455 27.3524 44.444 27.3396 44.2276H36.7299C36.7171 44.444 36.6659 44.6455 36.6659 44.864C36.6698 47.5807 37.7585 50.1849 39.693 52.1055C41.6275 54.0261 44.25 55.1083 46.9852 55.1111ZM46.9852 38.857C50.319 38.857 53.0333 41.5508 53.0333 44.864C53.0333 48.1772 50.3211 50.8668 46.9852 50.8668C43.6494 50.8668 40.9371 48.1751 40.9371 44.864C40.9371 41.5529 43.6494 38.857 46.9852 38.857ZM17.0864 50.8689C13.7506 50.8689 11.0383 48.1751 11.0383 44.864C11.0383 41.5529 13.7506 38.857 17.0864 38.857C20.4223 38.857 23.1324 41.5508 23.1324 44.864C23.1324 48.1772 20.4202 50.8689 17.0864 50.8689ZM62.5198 29.4201C59.1725 28.4749 55.7824 27.6864 52.3606 27.0571L49.0782 10.5993C48.95 9.98419 48.5656 9.45391 48.0317 9.15695C47.7586 9.01141 47.4576 8.92484 47.1484 8.90291C46.8393 8.88097 46.5289 8.92418 46.2378 9.02969C37.0859 12.4659 26.9858 12.4659 17.8339 9.02969C17.5475 8.91851 17.2398 8.87224 16.9331 8.89425C16.6265 8.91627 16.3286 9.00602 16.0613 9.15695C15.5061 9.45391 15.1217 9.98419 14.9935 10.5993L11.7111 27.0593C8.28861 27.6878 4.89777 28.4756 1.54974 29.4201C1.27986 29.4965 1.0278 29.6251 0.807979 29.7984C0.588154 29.9717 0.404872 30.1863 0.268611 30.43C0.132351 30.6736 0.0457842 30.9416 0.0138612 31.2185C-0.0180619 31.4955 0.00528435 31.7759 0.0825652 32.0439C0.407181 33.1681 1.59032 33.8108 2.72434 33.5011C21.881 28.0577 42.1906 28.0577 61.3473 33.5011C61.8851 33.6337 62.4538 33.5536 62.9333 33.2779C63.4129 33.0021 63.7659 32.5522 63.9179 32.023C64.07 31.4937 64.0092 30.9265 63.7484 30.441C63.4875 29.9554 63.0471 29.5894 62.5198 29.4201ZM16.2044 26.3147L18.7095 13.8234C27.3835 16.5385 36.6882 16.5385 45.3622 13.8234L47.8608 26.3126C37.3631 24.8076 26.7022 24.8098 16.2044 26.3147Z" fill="#C11CDE"/>
</svg>
