<svg width="65" height="64" viewBox="0 0 65 64" fill="none" xmlns="http://www.w3.org/2000/svg">
<g clip-path="url(#clip0_7_710)">
<path d="M32.6665 0C15.0216 0 0.666504 14.3551 0.666504 32C0.666504 49.6449 15.0216 64 32.6665 64C50.3114 64 64.6665 49.6449 64.6665 32C64.6665 14.3551 50.3114 0 32.6665 0ZM32.6665 4C36.9857 4.00022 41.2461 5.00068 45.1139 6.92298C48.9818 8.84528 52.3519 11.6372 54.9601 15.0799H10.3729C12.9811 11.6372 16.3513 8.84528 20.2191 6.92298C24.0869 5.00068 28.3473 4.00022 32.6665 4ZM32.6665 60C17.2273 60 4.6665 47.4392 4.6665 32C4.66175 27.8287 5.5947 23.7097 7.39638 19.9475V24.9766C7.40107 27.0653 8.23285 29.067 9.70974 30.5439C11.1866 32.0208 13.1884 32.8526 15.277 32.8573H22.6696C24.7583 32.8526 26.76 32.0208 28.2369 30.5439C29.7138 29.067 30.5456 27.0653 30.5503 24.9766V19.0799H34.7826V24.9766C34.7873 27.0653 35.6191 29.067 37.096 30.5439C38.5729 32.0208 40.5746 32.8526 42.6633 32.8573H50.0559C52.1445 32.8526 54.1463 32.0208 55.6231 30.5439C57.1 29.067 57.9318 27.0653 57.9365 24.9766V19.9473C59.7382 23.7095 60.6712 27.8286 60.6665 32C60.6665 47.4392 48.1058 60 32.6665 60ZM48.8805 43.5762C47.1387 46.2959 44.7407 48.5337 41.9073 50.0838C39.0739 51.6338 35.8961 52.4462 32.6665 52.4462C29.4369 52.4462 26.2591 51.6338 23.4257 50.0838C20.5923 48.5337 18.1943 46.2959 16.4525 43.5762C16.3091 43.3552 16.2109 43.1079 16.1633 42.8488C16.1158 42.5896 16.12 42.3236 16.1756 42.066C16.2312 41.8085 16.3371 41.5644 16.4873 41.3479C16.6375 41.1314 16.829 40.9468 17.0508 40.8045C17.2726 40.6623 17.5204 40.5652 17.7798 40.519C18.0392 40.4728 18.3052 40.4783 18.5624 40.5352C18.8197 40.5921 19.0632 40.6993 19.279 40.8506C19.4947 41.0019 19.6784 41.1944 19.8195 41.4169C21.1994 43.5721 23.0993 45.3456 25.3443 46.5739C27.5894 47.8023 30.1074 48.4461 32.6665 48.4461C35.2256 48.4461 37.7436 47.8023 39.9887 46.5739C42.2337 45.3456 44.1336 43.5721 45.5135 41.4169C45.8012 40.9733 46.2527 40.6617 46.7695 40.5501C47.2863 40.4386 47.8262 40.5362 48.2712 40.8216C48.7163 41.107 49.0302 41.557 49.1443 42.0732C49.2585 42.5894 49.1637 43.1298 48.8805 43.5762Z" fill="#C11CDE"/>
</g>
<defs>
<clipPath id="clip0_7_710">
<rect width="64" height="64" fill="white" transform="translate(0.666504)"/>
</clipPath>
</defs>
</svg>
