<svg width="65" height="64" viewBox="0 0 65 64" fill="none" xmlns="http://www.w3.org/2000/svg">
<g clip-path="url(#clip0_7_689)">
<path d="M56.968 35.1597C56.055 28.5225 52.5363 22.519 47.1857 18.4697C41.8351 14.4204 35.0911 12.6572 28.4372 13.5678C21.7833 14.4784 15.7645 17.9884 11.7051 23.3255C7.64558 28.6626 5.87787 35.3896 6.79081 42.0268C7.54294 47.5202 10.0738 52.6181 13.9981 56.5446C17.9224 60.4711 23.0253 63.0112 28.5303 63.7783C29.6567 63.9255 30.7915 63.9995 31.9276 63.9999C36.5175 64.0074 41.0214 62.758 44.9484 60.3879C45.505 60.0535 45.9057 59.5122 46.0622 58.8831C46.2187 58.254 46.1183 57.5886 45.783 57.0334C45.4477 56.4782 44.9051 56.0785 44.2744 55.9224C43.6437 55.7663 42.9767 55.8664 42.42 56.2009C39.6248 57.8744 36.4685 58.8559 33.2151 59.0633C29.9617 59.2707 26.7058 58.698 23.7198 57.3931C20.7338 56.0881 18.1044 54.0889 16.0518 51.5626C13.9991 49.0363 12.5827 46.0565 11.9212 42.8723C11.2596 39.6881 11.3721 36.3922 12.2493 33.2603C13.1264 30.1284 14.7427 27.2515 16.9629 24.8704C19.1831 22.4892 21.9427 20.673 25.0108 19.5737C28.0789 18.4743 31.3663 18.1239 34.5981 18.5515C37.5998 18.9496 40.4752 20.0088 43.0159 21.6523C45.5565 23.2958 47.6989 25.4824 49.2877 28.0538C50.8765 30.6252 51.872 33.5169 52.202 36.5195C52.5321 39.522 52.1884 42.5602 51.1958 45.4139C50.9383 46.1001 50.473 46.6893 49.8645 47.0998C49.256 47.5103 48.5345 47.7216 47.8002 47.7046C46.8324 47.7033 45.9046 47.3192 45.2203 46.6366C44.536 45.954 44.151 45.0286 44.1497 44.0633V28.9687C44.1497 28.3205 43.8916 27.699 43.4321 27.2407C42.9727 26.7823 42.3495 26.5249 41.6997 26.5249C41.0499 26.5249 40.4268 26.7823 39.9673 27.2407C39.5079 27.699 39.2497 28.3205 39.2497 28.9687V28.9915C37.3924 27.5932 35.1743 26.7515 32.8548 26.565C30.5354 26.3784 28.2107 26.8546 26.1527 27.9379C24.0948 29.0213 22.3887 30.6668 21.2342 32.6821C20.0798 34.6974 19.5246 36.999 19.6337 39.3175C19.7428 41.636 20.5118 43.8756 21.8505 45.7741C23.1892 47.6726 25.0423 49.1516 27.1929 50.0378C29.3436 50.924 31.7028 51.1809 33.9945 50.7784C36.2862 50.3758 38.4156 49.3306 40.1334 47.7648C40.8274 49.2068 41.9148 50.4245 43.2708 51.2783C44.6268 52.1321 46.1966 52.5875 47.8002 52.5922C49.5531 52.609 51.2678 52.0809 52.7062 51.0813C54.1445 50.0816 55.235 48.6599 55.8263 47.0138C57.1466 43.2092 57.538 39.1454 56.968 35.1597ZM31.8998 46.0754C30.4461 46.0754 29.0251 45.6454 27.8164 44.8398C26.6077 44.0342 25.6657 42.8892 25.1094 41.5495C24.5531 40.2099 24.4075 38.7358 24.6911 37.3136C24.9747 35.8915 25.6747 34.5851 26.7026 33.5598C27.7305 32.5345 29.0402 31.8363 30.4659 31.5534C31.8917 31.2705 33.3695 31.4157 34.7125 31.9706C36.0555 32.5255 37.2034 33.4652 38.0111 34.6708C38.8187 35.8764 39.2497 37.2939 39.2497 38.7439C39.2476 40.6877 38.4725 42.5512 37.0946 43.9257C35.7167 45.3001 33.8485 46.0732 31.8998 46.0754Z" fill="#C11CDE"/>
<path d="M57.8146 12.4444C61.4092 12.4444 64.3337 9.65315 64.3337 6.22222C64.3337 2.79129 61.4092 0 57.8146 0C56.2828 0 54.4498 0.85603 52.2108 2.61701C52.1999 2.62561 52.1892 2.63416 52.1783 2.64276L54.8799 5.23312C56.9459 3.65582 57.779 3.63678 57.8146 3.63678C59.3082 3.63678 60.5233 4.79655 60.5233 6.22217C60.5233 7.6478 59.3082 8.80756 57.8146 8.80756C57.7775 8.80756 56.88 8.78728 54.634 7.02079C54.3743 6.81652 50.159 2.90732 49.7899 2.61701C47.551 0.85603 45.7179 0 44.1861 0C40.5915 0 37.667 2.79129 37.667 6.22222C37.667 9.65315 40.5915 12.4444 44.1861 12.4444C45.7179 12.4444 47.5509 11.5884 49.7898 9.82739L49.82 9.80343L47.127 7.20636C45.0569 8.78807 44.2218 8.80761 44.1861 8.80761C42.6925 8.80761 41.4773 7.64785 41.4773 6.22222C41.4773 4.7966 42.6924 3.63683 44.1861 3.63683C44.2228 3.63683 45.2152 3.54407 47.3375 5.40074C48.4201 6.34789 51.9412 9.62969 52.2108 9.82744C54.5115 11.5144 56.2828 12.4444 57.8146 12.4444Z" fill="#C11CDE"/>
</g>
<defs>
<clipPath id="clip0_7_689">
<rect width="64" height="64" fill="white" transform="translate(0.333496)"/>
</clipPath>
</defs>
</svg>
