<svg width="65" height="64" viewBox="0 0 65 64" fill="none" xmlns="http://www.w3.org/2000/svg">
<path fill-rule="evenodd" clip-rule="evenodd" d="M32.3335 62C34.3909 62.001 36.4429 61.7912 38.4575 61.374C36.5875 60.504 34.8975 59.314 33.4575 57.873C33.0887 57.9568 32.7117 57.9994 32.3335 58C29.6335 58 26.6505 55.759 24.2235 50.905C23.3595 49.177 22.6075 47.19 22.0025 45H28.3405C28.3795 43.62 28.5775 42.281 28.9175 41H21.1025C20.6065 38.203 20.3335 35.174 20.3335 32C20.3335 28.826 20.6065 25.797 21.1025 23H43.5635C43.8505 24.62 44.0635 26.317 44.1915 28.076C45.5287 27.9516 46.8757 27.9798 48.2065 28.16C48.0932 26.4317 47.8976 24.7097 47.6205 23H56.7335C57.9383 26.268 58.473 29.745 58.3055 33.224C59.711 34.6511 60.8616 36.3084 61.7075 38.124C62.1247 36.1094 62.3345 34.0574 62.3335 32C62.3335 15.431 48.9015 2 32.3335 2C15.7655 2 2.3335 15.431 2.3335 32C2.3335 48.569 15.7645 62 32.3335 62ZM32.3305 6C29.6305 6.002 26.6495 8.243 24.2225 13.095C23.3595 14.823 22.6075 16.81 22.0025 19H42.6635C42.0585 16.81 41.3065 14.823 40.4435 13.095C38.0165 8.241 35.0335 6 32.3335 6H32.3305ZM20.6455 11.307C19.5155 13.566 18.5755 16.161 17.8655 19H9.8125C12.7433 13.935 17.2915 10.002 22.7265 7.833C21.9415 8.9338 21.2456 10.0955 20.6455 11.307ZM17.0455 23H7.9335C6.8985 25.804 6.3335 28.836 6.3335 32C6.3335 35.164 6.8985 38.196 7.9335 41H17.0455C16.5815 38.152 16.3335 35.126 16.3335 32C16.3335 28.874 16.5815 25.848 17.0455 23ZM17.8655 45H9.8125C12.7435 50.0652 17.2921 53.9981 22.7275 56.167C21.9425 55.0662 21.2466 53.9045 20.6465 52.693C19.5165 50.434 18.5765 47.839 17.8665 45H17.8655ZM41.9415 7.833C47.3765 10.0021 51.9247 13.935 54.8555 19H46.8015C46.0915 16.161 45.1515 13.566 44.0215 11.307C43.4216 10.0955 42.7261 8.93386 41.9415 7.833Z" fill="#C11CDE"/>
<path fill-rule="evenodd" clip-rule="evenodd" d="M55.7285 36.014C50.3765 30.662 41.6985 30.662 36.3475 36.014C30.9955 41.366 30.9955 50.044 36.3475 55.395C41.2185 60.267 48.8455 60.704 54.2115 56.707L58.9195 61.414C59.104 61.605 59.3247 61.7574 59.5687 61.8622C59.8127 61.967 60.0751 62.0222 60.3407 62.0245C60.6063 62.0268 60.8696 61.9762 61.1154 61.8756C61.3612 61.7751 61.5845 61.6266 61.7723 61.4388C61.9601 61.251 62.1086 61.0277 62.2091 60.7819C62.3097 60.5361 62.3603 60.2728 62.358 60.0072C62.3557 59.7416 62.3005 59.4792 62.1957 59.2352C62.0909 58.9912 61.9385 58.7705 61.7475 58.586L57.0405 53.878C61.0375 48.512 60.6005 40.885 55.7285 36.014ZM39.1755 38.842C42.9655 35.052 49.1105 35.052 52.9005 38.842C56.6905 42.632 56.6905 48.777 52.9005 52.567C49.1105 56.357 42.9655 56.357 39.1755 52.567C35.3855 48.777 35.3855 42.632 39.1755 38.842Z" fill="#C11CDE"/>
</svg>
