<svg width="36" height="24" viewBox="0 0 36 24" fill="none" xmlns="http://www.w3.org/2000/svg">
<g clip-path="url(#clip0_67_1417)">
<path d="M12.2728 0.0389709C5.84947 0.0389372 0.636385 5.39346 0.636353 11.9911C0.63632 18.5887 5.84935 23.9433 12.2726 23.9433C18.6959 23.9434 23.909 18.5888 23.909 11.9912C23.9091 5.39358 18.696 0.0390048 12.2728 0.0389709ZM12.2727 15.5768C10.3411 15.5768 8.78179 13.9751 8.7818 11.9911C8.78181 10.007 10.3411 8.40548 12.2727 8.40549C14.2043 8.4055 15.7636 10.0071 15.7636 11.9912C15.7636 13.9751 14.2043 15.5768 12.2727 15.5768Z" fill="#E0E2E8"/>
<path d="M25.352 9.00297C28.3081 9.8766 31.7985 9.003 31.7985 9.003C30.7861 13.5449 27.5745 16.3894 22.9432 16.736C21.1629 20.9791 17.0552 23.9432 12.2727 23.9432L15.7637 12.547C19.3522 0.832219 21.1914 0.0387756 29.702 0.0388184L35.5454 0.0388477C34.5679 4.46111 31.1992 7.83971 25.352 9.00297Z" fill="#BFC2D0"/>
</g>
<defs>
<clipPath id="clip0_67_1417">
<rect width="34.9091" height="24" fill="white" transform="translate(0.636353)"/>
</clipPath>
</defs>
</svg>
