<svg width="24" height="24" viewBox="0 0 24 24" fill="none" xmlns="http://www.w3.org/2000/svg">
<g clip-path="url(#clip0_2_10)">
<path d="M12 24C18.6274 24 24 18.6274 24 12C24 5.37258 18.6274 0 12 0C5.37258 0 0 5.37258 0 12C0 18.6274 5.37258 24 12 24Z" fill="#FF4500"/>
<path d="M19.9828 12.1144C19.9828 11.1416 19.1962 10.369 18.2375 10.369C17.7846 10.3684 17.349 10.5427 17.0215 10.8555C15.8198 9.99704 14.1745 9.43922 12.3434 9.36769L13.1444 5.61947L15.7481 6.17729C15.7769 6.83541 16.3204 7.36482 16.9929 7.36482C17.6796 7.36482 18.2375 6.807 18.2375 6.12C18.2375 5.43338 17.6796 4.87547 16.9929 4.87547C16.5066 4.87547 16.0772 5.1616 15.8769 5.57654L12.9729 4.96135C12.8871 4.94691 12.8012 4.96135 12.7439 5.00429C12.6724 5.04722 12.6295 5.11866 12.6154 5.20454L11.7281 9.38185C9.8684 9.43922 8.19449 9.99704 6.97856 10.8698C6.65105 10.5571 6.21541 10.3828 5.76253 10.3835C4.78968 10.3835 4.01718 11.1701 4.01718 12.1288C4.01718 12.844 4.44628 13.4448 5.04731 13.7168C5.01812 13.8918 5.00376 14.0688 5.00437 14.2462C5.00437 16.9355 8.13749 19.1245 12.0001 19.1245C15.8628 19.1245 18.9959 16.9499 18.9959 14.2462C18.9958 14.0689 18.9814 13.8918 18.953 13.7168C19.5537 13.4448 19.9828 12.8296 19.9828 12.1144ZM7.99424 13.3589C7.99424 12.6723 8.55206 12.1144 9.23906 12.1144C9.92568 12.1144 10.4836 12.6722 10.4836 13.3589C10.4836 14.0456 9.92578 14.6037 9.23906 14.6037C8.55215 14.6178 7.99424 14.0456 7.99424 13.3589ZM14.9615 16.6637C14.1031 17.5222 12.4721 17.5794 12.0001 17.5794C11.5137 17.5794 9.88284 17.5077 9.03853 16.6637C8.90999 16.535 8.90999 16.3346 9.03853 16.2059C9.16734 16.0774 9.36759 16.0774 9.4964 16.2059C10.0402 16.7497 11.1847 16.9355 12.0001 16.9355C12.8156 16.9355 13.9743 16.7496 14.5036 16.2059C14.6324 16.0774 14.8327 16.0774 14.9615 16.2059C15.0758 16.3346 15.0758 16.535 14.9615 16.6637ZM14.7324 14.6179C14.0457 14.6179 13.4879 14.0601 13.4879 13.3733C13.4879 12.6866 14.0457 12.1288 14.7324 12.1288C15.4193 12.1288 15.9772 12.6866 15.9772 13.3733C15.9772 14.0455 15.4193 14.6179 14.7324 14.6179Z" fill="white"/>
</g>
<defs>
<clipPath id="clip0_2_10">
<rect width="24" height="24" fill="white"/>
</clipPath>
</defs>
</svg>
