<svg width="24" height="24" viewBox="0 0 24 24" fill="none" xmlns="http://www.w3.org/2000/svg">
<g clip-path="url(#clip0_2_3)">
<path d="M8.36063 0.789371C5.96266 1.62125 3.89465 3.20018 2.46036 5.29425C1.02608 7.38832 0.301114 9.88714 0.391959 12.4237C0.482805 14.9602 1.38467 17.4008 2.96509 19.3869C4.5455 21.373 6.72117 22.7999 9.1725 23.4581C11.1599 23.9709 13.242 23.9934 15.24 23.5237C17.05 23.1172 18.7233 22.2476 20.0963 21C21.5252 19.6619 22.5623 17.9596 23.0963 16.0762C23.6766 14.0281 23.7799 11.8742 23.3981 9.78H12.2381V14.4094H18.7013C18.5721 15.1477 18.2953 15.8524 17.8874 16.4813C17.4795 17.1102 16.949 17.6503 16.3275 18.0694C15.5383 18.5914 14.6486 18.9427 13.7156 19.1006C12.7799 19.2746 11.8201 19.2746 10.8844 19.1006C9.93598 18.9045 9.03881 18.5131 8.25 17.9512C6.98278 17.0542 6.03127 15.7799 5.53125 14.31C5.02278 12.8126 5.02278 11.1893 5.53125 9.69187C5.88718 8.64228 6.47557 7.68663 7.2525 6.89625C8.14161 5.97515 9.26725 5.31674 10.5059 4.99326C11.7446 4.66979 13.0484 4.69374 14.2744 5.0625C15.2321 5.35648 16.1078 5.87013 16.8319 6.5625C17.5606 5.8375 18.2881 5.11062 19.0144 4.38187C19.3894 3.99 19.7981 3.61687 20.1675 3.21562C19.0623 2.18714 17.765 1.38685 16.35 0.860621C13.7732 -0.0750226 10.9537 -0.100167 8.36063 0.789371Z" fill="white"/>
<path d="M8.36063 0.789382C10.9535 -0.100761 13.773 -0.0762781 16.35 0.858757C17.7653 1.38856 19.062 2.1927 20.1656 3.22501C19.7906 3.62626 19.395 4.00126 19.0125 4.39126C18.285 5.11751 17.5581 5.84126 16.8319 6.56251C16.1078 5.87014 15.2321 5.35649 14.2744 5.06251C13.0488 4.69246 11.745 4.66712 10.506 4.98927C9.26704 5.31143 8.14071 5.96862 7.25063 6.88876C6.47369 7.67914 5.8853 8.63479 5.52938 9.68438L1.6425 6.67501C3.03377 3.91606 5.44266 1.80568 8.36063 0.789382Z" fill="#E33629"/>
<path d="M0.611248 9.65625C0.820163 8.62087 1.16701 7.61818 1.6425 6.675L5.52937 9.69188C5.0209 11.1893 5.0209 12.8126 5.52937 14.31C4.23437 15.31 2.93875 16.315 1.6425 17.325C0.452156 14.9556 0.089122 12.2559 0.611248 9.65625Z" fill="#F8BD00"/>
<path d="M12.2381 9.77812H23.3981C23.7799 11.8724 23.6766 14.0263 23.0962 16.0744C22.5623 17.9578 21.5251 19.66 20.0962 20.9981C18.8419 20.0194 17.5819 19.0481 16.3275 18.0694C16.9494 17.6499 17.4802 17.1092 17.8881 16.4796C18.296 15.8501 18.5725 15.1446 18.7012 14.4056H12.2381C12.2362 12.8644 12.2381 11.3212 12.2381 9.77812Z" fill="#587DBD"/>
<path d="M1.64062 17.325C2.93688 16.325 4.2325 15.32 5.5275 14.31C6.02851 15.7804 6.98138 17.0548 8.25 17.9512C9.04126 18.5105 9.94037 18.8987 10.89 19.0912C11.8257 19.2652 12.7855 19.2652 13.7213 19.0912C14.6542 18.9333 15.5439 18.5821 16.3331 18.06C17.5875 19.0387 18.8475 20.01 20.1019 20.9887C18.7292 22.237 17.0558 23.1073 15.2456 23.5144C13.2476 23.9841 11.1655 23.9616 9.17813 23.4487C7.60632 23.0291 6.13814 22.2892 4.86563 21.2756C3.51874 20.2063 2.41867 18.8587 1.64062 17.325Z" fill="#319F43"/>
</g>
<defs>
<clipPath id="clip0_2_3">
<rect width="24" height="24" fill="white"/>
</clipPath>
</defs>
</svg>
