<svg width="36" height="24" viewBox="0 0 36 24" fill="none" xmlns="http://www.w3.org/2000/svg">
<g clip-path="url(#clip0_2_24)">
<path d="M3.89241 15.7384C3.89241 17.1103 4.1941 18.1636 4.5883 18.8008C5.10524 19.6355 5.87606 19.9891 6.66208 19.9891C7.67584 19.9891 8.60328 19.7378 10.3904 17.2702C11.8223 15.2924 13.5094 12.5159 14.6445 10.7754L16.567 7.82667C17.9024 5.77881 19.448 3.50232 21.2204 1.95916C22.6669 0.699649 24.2276 0 25.7983 0C28.4353 0 30.9472 1.52561 32.8697 4.38695C34.9735 7.52056 35.9949 11.4676 35.9949 15.5409C35.9949 17.9624 35.5169 19.7416 34.7033 21.1474C33.9173 22.5068 32.3854 23.865 29.8084 23.865V19.9891C32.0149 19.9891 32.5656 17.9649 32.5656 15.6484C32.5656 12.3474 31.7946 8.68379 30.0964 6.06625C28.891 4.2094 27.3291 3.07495 25.6107 3.07495C23.7522 3.07495 22.2565 4.47425 20.5757 6.96968C19.6821 8.2953 18.7646 9.91088 17.7347 11.7338L16.6007 13.7392C14.3228 17.7712 13.7459 18.6895 12.607 20.2052C10.6107 22.8592 8.90624 23.865 6.66208 23.865C4.0001 23.865 2.31659 22.7141 1.27415 20.9799C0.423047 19.5667 0.0050869 17.7126 0.0050869 15.5997L3.89241 15.7384Z" fill="#0081FB"/>
<path d="M3.07014 4.66049C4.85247 1.91804 7.42434 0 10.3742 0C12.0828 0 13.781 0.504842 15.5545 1.95046C17.4943 3.53095 19.5619 6.13361 22.1414 10.4232L23.0664 11.9624C25.299 15.6759 26.5694 17.5862 27.3128 18.4873C28.269 19.6442 28.9387 19.9891 29.8085 19.9891C32.0149 19.9891 32.5656 17.9649 32.5656 15.6484L35.9949 15.5409C35.9949 17.9624 35.5169 19.7416 34.7034 21.1474C33.9173 22.5068 32.3854 23.865 29.8085 23.865C28.2065 23.865 26.7873 23.5176 25.2178 22.0394C24.0113 20.905 22.6008 18.8895 21.5156 17.0778L18.2878 11.695C16.6684 8.99368 15.1827 6.97965 14.323 6.06737C13.3982 5.0866 12.2092 3.90204 10.3118 3.90204C8.77621 3.90204 7.472 4.97797 6.38064 6.62344L3.07014 4.66049Z" fill="url(#paint0_linear_2_24)"/>
<path d="M10.3117 3.90204C8.77606 3.90204 7.47185 4.97797 6.38048 6.62344C4.83742 8.94877 3.89241 12.4122 3.89241 15.7384C3.89241 17.1103 4.1941 18.1637 4.58831 18.8008L1.27415 20.9799C0.423047 19.5667 0.0050869 17.7126 0.0050869 15.5997C0.0050869 11.7575 1.06144 7.75298 3.07013 4.66049C4.85246 1.91804 7.42433 0 10.3742 0L10.3117 3.90204Z" fill="url(#paint1_linear_2_24)"/>
</g>
<defs>
<linearGradient id="paint0_linear_2_24" x1="460" y1="1334.86" x2="2935.11" y2="1460.08" gradientUnits="userSpaceOnUse">
<stop stop-color="#0064E1"/>
<stop offset="0.4" stop-color="#0064E1"/>
<stop offset="0.83" stop-color="#0073EE"/>
<stop offset="1" stop-color="#0082FB"/>
</linearGradient>
<linearGradient id="paint1_linear_2_24" x1="563.205" y1="1736.76" x2="563.205" y2="824.658" gradientUnits="userSpaceOnUse">
<stop stop-color="#0082FB"/>
<stop offset="1" stop-color="#0064E0"/>
</linearGradient>
<clipPath id="clip0_2_24">
<rect width="36" height="24" fill="white"/>
</clipPath>
</defs>
</svg>
