<svg width="974" height="300" viewBox="0 0 974 300" fill="none" xmlns="http://www.w3.org/2000/svg">
<path d="M671.803 61.6121H631.403V27C668.391 27 671.803 31.2251 671.803 61.6121ZM671.803 221.693H631.403V78.9181H671.803V221.693Z" fill="black"/>
<path fill-rule="evenodd" clip-rule="evenodd" d="M468.734 148.058C468.734 106.415 490.77 75.5889 530.252 75.5889C552.288 75.5889 568.356 87.8247 578.915 104.049V84.2419V79.9154H619.315V242.448C619.315 269.885 615.51 273.557 578.915 273.557V215.389C578.915 211.333 578.747 195.945 578.747 195.945C568.188 212.17 552.059 220.527 530.252 220.527C490.77 220.527 468.734 189.701 468.734 148.058ZM578.915 148.058C578.915 166.175 564.913 181.588 542.877 181.588C519.693 181.588 509.134 166.175 509.134 148.058C509.134 129.941 519.693 114.527 542.877 114.527C564.913 114.527 578.915 129.941 578.915 148.058Z" fill="black"/>
<path d="M312.406 166.344C312.406 206.905 333.524 226.915 364.512 226.915C389.533 226.915 406.661 205.95 415.383 191.619L415.242 215.829V222.589H455.642V79.814H415.242V130.38C415.242 163.37 397.567 187.977 378.056 187.977C360.84 187.977 352.806 179.053 352.806 146.875V79.814H312.406V166.344Z" fill="black"/>
<path d="M300.157 77.7012C271.005 77.7012 254.248 91.4074 245.066 110.336V79.8644H204.666V222.639H245.066V171.532C245.066 135.298 266.873 118.803 300.157 121.507V77.7012Z" fill="black"/>
<path fill-rule="evenodd" clip-rule="evenodd" d="M42 63.9702C42 31.2256 45.5866 27.0005 82.4 27.0005V83.2451V103.486C82.4 103.486 99.632 74.5921 131.064 74.5921C170.086 74.5921 192.582 108.123 192.582 150.306C192.582 192.489 170.086 226.02 131.064 226.02C109.257 226.02 94.0566 211.443 82.3498 194.948L82.4 216.556V221.693H42C42 221.693 42 96.7147 42 63.9702ZM152.182 150.306C152.182 170.046 141.623 187.081 118.439 187.081C96.4023 187.081 82.4 170.046 82.4 150.306C82.4 130.566 96.4023 113.531 118.439 113.531C141.623 113.531 152.182 130.566 152.182 150.306Z" fill="black"/>
<path fill-rule="evenodd" clip-rule="evenodd" d="M734.319 88.8538C734.319 92.4616 735.753 95.9216 738.304 98.4726L782.027 143.813C783.42 145.258 785.31 146.107 787.312 146.244C792.496 146.599 802.335 147.528 802.335 149.464C802.335 151.404 792.456 152.333 787.28 152.686C785.297 152.822 783.424 153.656 782.034 155.076L738.304 199.78C735.753 202.331 734.319 205.791 734.319 209.399L734.319 234.179C734.319 246.298 748.972 252.367 757.541 243.797L842.584 158.754C845.299 156.039 846.627 152.462 846.567 148.904C846.514 145.494 845.186 142.1 842.584 139.498L757.541 54.4554C748.972 45.8859 734.319 51.9552 734.319 64.0742V88.8538Z" fill="url(#paint0_linear_368_144)"/>
<path fill-rule="evenodd" clip-rule="evenodd" d="M819.363 89.2518C819.363 92.8595 820.796 96.3195 823.347 98.8706L867.071 144.211C868.464 145.656 870.354 146.505 872.355 146.642C877.54 146.997 887.378 147.926 887.378 149.862C887.378 151.802 877.5 152.731 872.323 153.084C870.341 153.22 868.468 154.053 867.078 155.474L823.347 200.178C820.796 202.729 819.363 206.189 819.363 209.797L819.363 234.577C819.363 246.696 834.016 252.765 842.585 244.195L927.628 159.152C930.343 156.437 931.671 152.86 931.611 149.302C931.557 145.892 930.23 142.498 927.628 139.896L842.585 54.8533C834.016 46.2839 819.363 52.3531 819.363 64.4721V89.2518Z" fill="url(#paint1_linear_368_144)"/>
<defs>
<linearGradient id="paint0_linear_368_144" x1="753.132" y1="219.537" x2="722.508" y2="51.7004" gradientUnits="userSpaceOnUse">
<stop stop-color="#CD44E5"/>
<stop offset="1" stop-color="#BF2DDB"/>
</linearGradient>
<linearGradient id="paint1_linear_368_144" x1="838.176" y1="219.935" x2="807.552" y2="52.0983" gradientUnits="userSpaceOnUse">
<stop stop-color="#CD44E5"/>
<stop offset="1" stop-color="#BF2DDB"/>
</linearGradient>
</defs>
</svg>
