<svg width="34" height="34" viewBox="0 0 34 34" fill="none" xmlns="http://www.w3.org/2000/svg">
<path d="M16.9993 31.1668C16.9993 31.1668 28.3327 25.5002 28.3327 17.0002L12.041 27.8698C14.6196 29.9769 16.9993 31.1668 16.9993 31.1668Z" fill="#C11CDE"/>
<path d="M12.041 27.8698L28.3327 17.0002V8.50016L6.95782 21.9585C8.2055 24.3403 10.1753 26.3451 12.041 27.8698Z" fill="#C11CDE"/>
<path d="M28.3327 5.66683L16.9993 2.8335L5.66602 5.66683V17.0002C5.66602 18.7869 6.16679 20.4485 6.95782 21.9585L28.3327 8.50016V5.66683Z" fill="#C11CDE"/>
<path d="M28.3327 17.0002C28.3327 25.5002 16.9993 31.1668 16.9993 31.1668C16.9993 31.1668 14.6196 29.9769 12.041 27.8698M28.3327 17.0002L12.041 27.8698M28.3327 17.0002V8.50016M12.041 27.8698C10.1753 26.3451 8.2055 24.3403 6.95782 21.9585M28.3327 8.50016V5.66683L16.9993 2.8335L5.66602 5.66683V17.0002C5.66602 18.7869 6.16679 20.4485 6.95782 21.9585M28.3327 8.50016L6.95782 21.9585" stroke="#C11CDE" stroke-width="3.5" stroke-linecap="round" stroke-linejoin="round"/>
</svg>
