<svg width="34" height="34" viewBox="0 0 34 34" fill="none" xmlns="http://www.w3.org/2000/svg">
<path d="M16.9993 31.1668C16.9993 31.1668 28.3327 25.5002 28.3327 17.0002L12.041 27.8698C14.6196 29.9769 16.9993 31.1668 16.9993 31.1668Z" fill="#C11CDE"/>
<path d="M28.3327 17.0002C28.3327 25.5002 16.9993 31.1668 16.9993 31.1668C16.9993 31.1668 14.6196 29.9769 12.041 27.8698M28.3327 17.0002L12.041 27.8698M28.3327 17.0002V14.1668M12.041 27.8698C11.4258 27.367 10.7992 26.812 10.1909 26.2085M28.3327 14.1668V12.7502V8.50016V5.66683L16.9993 2.8335L5.66602 5.66683V17.0002C5.66602 18.7869 6.16679 20.4485 6.95782 21.9585C7.56749 23.1223 8.34957 24.1962 9.20768 25.168C9.52658 25.5291 9.85598 25.8762 10.1909 26.2085M28.3327 14.1668L10.1909 26.2085" stroke="#C11CDE" stroke-width="3.5" stroke-linecap="round" stroke-linejoin="round"/>
</svg>
