<svg width="34" height="34" viewBox="0 0 34 34" fill="none" xmlns="http://www.w3.org/2000/svg">
<path d="M16.9993 31.1668C16.9993 31.1668 28.3327 25.5002 28.3327 17.0002L12.041 27.8698C14.6196 29.9769 16.9993 31.1668 16.9993 31.1668Z" fill="#C11CDE"/>
<path fill-rule="evenodd" clip-rule="evenodd" d="M28.3327 17.0002L12.041 27.8698C11.087 27.0901 10.1057 26.1849 9.20768 25.168L28.3327 12.7502V17.0002Z" fill="#C11CDE"/>
<path d="M28.3327 8.50016V5.66683L6.08639 19.8335C6.30553 20.5708 6.60237 21.28 6.95782 21.9585C7.56749 23.1223 8.34957 24.1962 9.20768 25.168L28.3327 12.7502V8.50016Z" fill="#C11CDE"/>
<path d="M28.3327 17.0002C28.3327 25.5002 16.9993 31.1668 16.9993 31.1668C16.9993 31.1668 14.6196 29.9769 12.041 27.8698M28.3327 17.0002L12.041 27.8698M28.3327 17.0002V12.7502M28.3327 5.66683L16.9993 2.8335L5.66602 5.66683V17.0002C5.66602 17.984 5.81786 18.9299 6.08639 19.8335M28.3327 5.66683V8.50016V12.7502M28.3327 5.66683L6.08639 19.8335M12.041 27.8698C11.087 27.0901 10.1057 26.1849 9.20768 25.168M28.3327 12.7502L9.20768 25.168M9.20768 25.168C8.34957 24.1962 7.56749 23.1223 6.95782 21.9585C6.60237 21.28 6.30553 20.5708 6.08639 19.8335" stroke="#C11CDE" stroke-width="3.5" stroke-linecap="round" stroke-linejoin="round"/>
</svg>
